<svg width="184" height="59" viewBox="0 0 184 59" fill="none" xmlns="http://www.w3.org/2000/svg">
<mask id="path-1-outside-1_5_60" maskUnits="userSpaceOnUse" x="0" y="11" width="36" height="38" fill="black">
<rect fill="white" y="11" width="36" height="38"/>
<path d="M20.064 47.576C17.472 47.576 15.056 47.16 12.816 46.328C10.608 45.464 8.688 44.248 7.056 42.68C5.424 41.112 4.144 39.272 3.216 37.16C2.32 35.048 1.872 32.728 1.872 30.2C1.872 27.672 2.32 25.352 3.216 23.24C4.144 21.128 5.424 19.288 7.056 17.72C8.72 16.152 10.656 14.952 12.864 14.12C15.072 13.256 17.488 12.824 20.112 12.824C23.024 12.824 25.648 13.336 27.984 14.36C30.352 15.352 32.336 16.824 33.936 18.776L28.944 23.384C27.792 22.072 26.512 21.096 25.104 20.456C23.696 19.784 22.16 19.448 20.496 19.448C18.928 19.448 17.488 19.704 16.176 20.216C14.864 20.728 13.728 21.464 12.768 22.424C11.808 23.384 11.056 24.52 10.512 25.832C10 27.144 9.744 28.6 9.744 30.2C9.744 31.8 10 33.256 10.512 34.568C11.056 35.88 11.808 37.016 12.768 37.976C13.728 38.936 14.864 39.672 16.176 40.184C17.488 40.696 18.928 40.952 20.496 40.952C22.16 40.952 23.696 40.632 25.104 39.992C26.512 39.32 27.792 38.312 28.944 36.968L33.936 41.576C32.336 43.528 30.352 45.016 27.984 46.04C25.648 47.064 23.008 47.576 20.064 47.576Z"/>
</mask>
<path d="M20.064 47.576C17.472 47.576 15.056 47.16 12.816 46.328C10.608 45.464 8.688 44.248 7.056 42.68C5.424 41.112 4.144 39.272 3.216 37.16C2.32 35.048 1.872 32.728 1.872 30.2C1.872 27.672 2.32 25.352 3.216 23.24C4.144 21.128 5.424 19.288 7.056 17.72C8.72 16.152 10.656 14.952 12.864 14.12C15.072 13.256 17.488 12.824 20.112 12.824C23.024 12.824 25.648 13.336 27.984 14.36C30.352 15.352 32.336 16.824 33.936 18.776L28.944 23.384C27.792 22.072 26.512 21.096 25.104 20.456C23.696 19.784 22.16 19.448 20.496 19.448C18.928 19.448 17.488 19.704 16.176 20.216C14.864 20.728 13.728 21.464 12.768 22.424C11.808 23.384 11.056 24.52 10.512 25.832C10 27.144 9.744 28.6 9.744 30.2C9.744 31.8 10 33.256 10.512 34.568C11.056 35.88 11.808 37.016 12.768 37.976C13.728 38.936 14.864 39.672 16.176 40.184C17.488 40.696 18.928 40.952 20.496 40.952C22.16 40.952 23.696 40.632 25.104 39.992C26.512 39.32 27.792 38.312 28.944 36.968L33.936 41.576C32.336 43.528 30.352 45.016 27.984 46.04C25.648 47.064 23.008 47.576 20.064 47.576Z" fill="#F0FFFC"/>
<path d="M12.816 46.328L12.4516 47.2592L12.4597 47.2624L12.4678 47.2654L12.816 46.328ZM7.056 42.68L6.36317 43.4011L7.056 42.68ZM3.216 37.16L2.29534 37.5506L2.30048 37.5623L3.216 37.16ZM3.216 23.24L2.30041 22.8377L2.29542 22.8494L3.216 23.24ZM7.056 17.72L6.37017 16.9922L6.36317 16.9989L7.056 17.72ZM12.864 14.12L13.2166 15.0558L13.2284 15.0512L12.864 14.12ZM27.984 14.36L27.5825 15.2759L27.59 15.2792L27.5976 15.2823L27.984 14.36ZM33.936 18.776L34.6143 19.5108L35.3071 18.8713L34.7094 18.1421L33.936 18.776ZM28.944 23.384L28.1926 24.0438L28.869 24.8142L29.6223 24.1188L28.944 23.384ZM25.104 20.456L24.6733 21.3585L24.6817 21.3625L24.6902 21.3664L25.104 20.456ZM12.768 22.424L13.4751 23.1311L12.768 22.424ZM10.512 25.832L9.58826 25.449L9.58424 25.4587L9.58042 25.4685L10.512 25.832ZM10.512 34.568L9.58042 34.9315L9.58424 34.9413L9.58826 34.951L10.512 34.568ZM12.768 37.976L12.0609 38.6831L12.768 37.976ZM25.104 39.992L25.5178 40.9024L25.5263 40.8985L25.5347 40.8945L25.104 39.992ZM28.944 36.968L29.6223 36.2332L28.8599 35.5295L28.1847 36.3172L28.944 36.968ZM33.936 41.576L34.7094 42.2099L35.3071 41.4807L34.6143 40.8412L33.936 41.576ZM27.984 46.04L27.5871 45.1221L27.5825 45.1241L27.984 46.04ZM20.064 46.576C17.5808 46.576 15.2837 46.1778 13.1642 45.3906L12.4678 47.2654C14.8283 48.1422 17.3632 48.576 20.064 48.576V46.576ZM13.1804 45.3968C11.0887 44.5783 9.28172 43.4317 7.74883 41.9589L6.36317 43.4011C8.09428 45.0643 10.1273 46.3497 12.4516 47.2592L13.1804 45.3968ZM7.74883 41.9589C6.21306 40.4833 5.00791 38.7523 4.13152 36.7577L2.30048 37.5623C3.28009 39.7917 4.63494 41.7407 6.36317 43.4011L7.74883 41.9589ZM4.13658 36.7695C3.2981 34.793 2.872 32.6075 2.872 30.2H0.872C0.872 32.8485 1.3419 35.303 2.29542 37.5505L4.13658 36.7695ZM2.872 30.2C2.872 27.7925 3.2981 25.607 4.13658 23.6305L2.29542 22.8494C1.3419 25.097 0.872 27.5515 0.872 30.2H2.872ZM4.13152 23.6423C5.00791 21.6477 6.21306 19.9166 7.74883 18.4411L6.36317 16.9989C4.63494 18.6593 3.28009 20.6083 2.30048 22.8377L4.13152 23.6423ZM7.7418 18.4478C9.30648 16.9734 11.1283 15.8427 13.2166 15.0558L12.5114 13.1842C10.1837 14.0613 8.13352 15.3306 6.3702 16.9922L7.7418 18.4478ZM13.2284 15.0512C15.3085 14.2373 17.5994 13.824 20.112 13.824V11.824C17.3766 11.824 14.8355 12.2747 12.4996 13.1888L13.2284 15.0512ZM20.112 13.824C22.9053 13.824 25.3898 14.3147 27.5825 15.2759L28.3855 13.4441C25.9062 12.3573 23.1427 11.824 20.112 11.824V13.824ZM27.5976 15.2823C29.8177 16.2124 31.668 17.5865 33.1626 19.4099L34.7094 18.1421C33.004 16.0615 30.8863 14.4916 28.3704 13.4377L27.5976 15.2823ZM33.2577 18.0412L28.2657 22.6492L29.6223 24.1188L34.6143 19.5108L33.2577 18.0412ZM29.6954 22.7242C28.462 21.3194 27.0705 20.2514 25.5178 19.5456L24.6902 21.3664C25.9535 21.9406 27.122 22.8246 28.1926 24.0438L29.6954 22.7242ZM25.5347 19.5535C23.9834 18.8131 22.2989 18.448 20.496 18.448V20.448C22.0211 20.448 23.4086 20.7549 24.6733 21.3585L25.5347 19.5535ZM20.496 18.448C18.8177 18.448 17.2527 18.7224 15.8125 19.2844L16.5395 21.1476C17.7233 20.6856 19.0383 20.448 20.496 20.448V18.448ZM15.8125 19.2844C14.3766 19.8448 13.1223 20.6555 12.0609 21.7169L13.4751 23.1311C14.3337 22.2725 15.3514 21.6112 16.5395 21.1476L15.8125 19.2844ZM12.0609 21.7169C11.0039 22.7739 10.1802 24.0215 9.58826 25.449L11.4357 26.215C11.9319 25.0185 12.6121 23.9941 13.4751 23.1311L12.0609 21.7169ZM9.58042 25.4685C9.01748 26.911 8.744 28.4924 8.744 30.2H10.744C10.744 28.7076 10.9825 27.377 11.4436 26.1955L9.58042 25.4685ZM8.744 30.2C8.744 31.9076 9.01748 33.489 9.58042 34.9315L11.4436 34.2045C10.9825 33.023 10.744 31.6924 10.744 30.2H8.744ZM9.58826 34.951C10.1802 36.3785 11.0039 37.6261 12.0609 38.6831L13.4751 37.2689C12.6121 36.4059 11.9319 35.3815 11.4357 34.185L9.58826 34.951ZM12.0609 38.6831C13.1223 39.7445 14.3766 40.5552 15.8125 41.1156L16.5395 39.2524C15.3514 38.7888 14.3337 38.1275 13.4751 37.2689L12.0609 38.6831ZM15.8125 41.1156C17.2527 41.6776 18.8177 41.952 20.496 41.952V39.952C19.0383 39.952 17.7233 39.7144 16.5395 39.2524L15.8125 41.1156ZM20.496 41.952C22.2918 41.952 23.9702 41.6058 25.5178 40.9024L24.6902 39.0816C23.4218 39.6582 22.0282 39.952 20.496 39.952V41.952ZM25.5347 40.8945C27.0845 40.1548 28.4727 39.0544 29.7033 37.6188L28.1847 36.3172C27.1113 37.5696 25.9395 38.4852 24.6733 39.0895L25.5347 40.8945ZM28.2657 37.7028L33.2577 42.3108L34.6143 40.8412L29.6223 36.2332L28.2657 37.7028ZM33.1626 40.9421C31.666 42.768 29.8121 44.16 27.5871 45.1221L28.3809 46.9579C30.8919 45.872 33.006 44.288 34.7094 42.2099L33.1626 40.9421ZM27.5825 45.1241C25.3911 46.0847 22.891 46.576 20.064 46.576V48.576C23.125 48.576 25.9049 48.0433 28.3855 46.9559L27.5825 45.1241Z" fill="#3D444D" mask="url(#path-1-outside-1_5_60)"/>
<mask id="path-3-outside-2_5_60" maskUnits="userSpaceOnUse" x="97" y="12" width="41" height="36" fill="black">
<rect fill="white" x="97" y="12" width="41" height="36"/>
<path d="M98.984 47V13.4H105.416L119.72 37.112H116.312L130.376 13.4H136.76L136.856 47H129.56L129.512 24.584H130.856L119.624 43.448H116.12L104.648 24.584H106.28V47H98.984Z"/>
</mask>
<path d="M98.984 47V13.4H105.416L119.72 37.112H116.312L130.376 13.4H136.76L136.856 47H129.56L129.512 24.584H130.856L119.624 43.448H116.12L104.648 24.584H106.28V47H98.984Z" fill="#F0FFFC"/>
<path d="M98.984 47H97.984V48H98.984V47ZM98.984 13.4V12.4H97.984V13.4H98.984ZM105.416 13.4L106.272 12.8835L105.981 12.4H105.416V13.4ZM119.72 37.112V38.112H121.491L120.576 36.5955L119.72 37.112ZM116.312 37.112L115.452 36.6019L114.556 38.112H116.312V37.112ZM130.376 13.4V12.4H129.806L129.516 12.8899L130.376 13.4ZM136.76 13.4L137.76 13.3971L137.757 12.4H136.76V13.4ZM136.856 47V48H137.859L137.856 46.9971L136.856 47ZM129.56 47L128.56 47.0021L128.562 48H129.56V47ZM129.512 24.584V23.584H128.51L128.512 24.5861L129.512 24.584ZM130.856 24.584L131.715 25.0956L132.615 23.584H130.856V24.584ZM119.624 43.448V44.448H120.192L120.483 43.9596L119.624 43.448ZM116.12 43.448L115.266 43.9676L115.558 44.448H116.12V43.448ZM104.648 24.584V23.584H102.869L103.794 25.1036L104.648 24.584ZM106.28 24.584H107.28V23.584H106.28V24.584ZM106.28 47V48H107.28V47H106.28ZM99.984 47V13.4H97.984V47H99.984ZM98.984 14.4H105.416V12.4H98.984V14.4ZM104.56 13.9165L118.864 37.6285L120.576 36.5955L106.272 12.8835L104.56 13.9165ZM119.72 36.112H116.312V38.112H119.72V36.112ZM117.172 37.6221L131.236 13.9101L129.516 12.8899L115.452 36.6019L117.172 37.6221ZM130.376 14.4H136.76V12.4H130.376V14.4ZM135.76 13.4029L135.856 47.0029L137.856 46.9971L137.76 13.3971L135.76 13.4029ZM136.856 46H129.56V48H136.856V46ZM130.56 46.9979L130.512 24.5819L128.512 24.5861L128.56 47.0021L130.56 46.9979ZM129.512 25.584H130.856V23.584H129.512V25.584ZM129.997 24.0724L118.765 42.9364L120.483 43.9596L131.715 25.0956L129.997 24.0724ZM119.624 42.448H116.12V44.448H119.624V42.448ZM116.974 42.9284L105.502 24.0644L103.794 25.1036L115.266 43.9676L116.974 42.9284ZM104.648 25.584H106.28V23.584H104.648V25.584ZM105.28 24.584V47H107.28V24.584H105.28ZM106.28 46H98.984V48H106.28V46Z" fill="#3D444D" mask="url(#path-3-outside-2_5_60)"/>
<mask id="path-5-outside-3_5_60" maskUnits="userSpaceOnUse" x="150" y="12" width="33" height="36" fill="black">
<rect fill="white" x="150" y="12" width="33" height="36"/>
<path d="M151.984 47V13.4H166.528C169.536 13.4 172.128 13.896 174.304 14.888C176.48 15.848 178.16 17.24 179.344 19.064C180.528 20.888 181.12 23.064 181.12 25.592C181.12 28.088 180.528 30.248 179.344 32.072C178.16 33.896 176.48 35.304 174.304 36.296C172.128 37.256 169.536 37.736 166.528 37.736H156.304L159.76 34.232V47H151.984ZM159.76 35.096L156.304 31.4H166.096C168.496 31.4 170.288 30.888 171.472 29.864C172.656 28.84 173.248 27.416 173.248 25.592C173.248 23.736 172.656 22.296 171.472 21.272C170.288 20.248 168.496 19.736 166.096 19.736H156.304L159.76 16.04V35.096Z"/>
</mask>
<path d="M151.984 47V13.4H166.528C169.536 13.4 172.128 13.896 174.304 14.888C176.48 15.848 178.16 17.24 179.344 19.064C180.528 20.888 181.12 23.064 181.12 25.592C181.12 28.088 180.528 30.248 179.344 32.072C178.16 33.896 176.48 35.304 174.304 36.296C172.128 37.256 169.536 37.736 166.528 37.736H156.304L159.76 34.232V47H151.984ZM159.76 35.096L156.304 31.4H166.096C168.496 31.4 170.288 30.888 171.472 29.864C172.656 28.84 173.248 27.416 173.248 25.592C173.248 23.736 172.656 22.296 171.472 21.272C170.288 20.248 168.496 19.736 166.096 19.736H156.304L159.76 16.04V35.096Z" fill="#F0FFFC"/>
<path d="M151.984 47H150.984V48H151.984V47ZM151.984 13.4V12.4H150.984V13.4H151.984ZM174.304 14.888L173.889 15.798L173.9 15.8029L174.304 14.888ZM179.344 19.064L178.505 19.6085V19.6085L179.344 19.064ZM174.304 36.296L174.708 37.211L174.719 37.2059L174.304 36.296ZM156.304 37.736L155.592 37.0338L153.913 38.736H156.304V37.736ZM159.76 34.232H160.76V31.794L159.048 33.5298L159.76 34.232ZM159.76 47V48H160.76V47H159.76ZM159.76 35.096L159.03 35.779L160.76 37.6296V35.096H159.76ZM156.304 31.4V30.4H154L155.574 32.083L156.304 31.4ZM156.304 19.736L155.574 19.053L154 20.736H156.304V19.736ZM159.76 16.04H160.76V13.5064L159.03 15.357L159.76 16.04ZM152.984 47V13.4H150.984V47H152.984ZM151.984 14.4H166.528V12.4H151.984V14.4ZM166.528 14.4C169.429 14.4 171.872 14.8785 173.889 15.7979L174.719 13.9781C172.384 12.9135 169.643 12.4 166.528 12.4V14.4ZM173.9 15.8029C175.916 16.6921 177.437 17.9629 178.505 19.6085L180.183 18.5195C178.883 16.5171 177.044 15.0039 174.708 13.9731L173.9 15.8029ZM178.505 19.6085C179.568 21.2454 180.12 23.2252 180.12 25.592H182.12C182.12 22.9028 181.488 20.5306 180.183 18.5195L178.505 19.6085ZM180.12 25.592C180.12 27.924 179.569 29.8886 178.505 31.5275L180.183 32.6165C181.487 30.6074 182.12 28.252 182.12 25.592H180.12ZM178.505 31.5275C177.435 33.1761 175.91 34.4649 173.889 35.3861L174.719 37.2059C177.05 36.1431 178.885 34.6159 180.183 32.6165L178.505 31.5275ZM173.9 35.3811C171.88 36.2722 169.433 36.736 166.528 36.736V38.736C169.639 38.736 172.376 38.2398 174.708 37.2109L173.9 35.3811ZM166.528 36.736H156.304V38.736H166.528V36.736ZM157.016 38.4382L160.472 34.9342L159.048 33.5298L155.592 37.0338L157.016 38.4382ZM158.76 34.232V47H160.76V34.232H158.76ZM159.76 46H151.984V48H159.76V46ZM160.49 34.413L157.034 30.717L155.574 32.083L159.03 35.779L160.49 34.413ZM156.304 32.4H166.096V30.4H156.304V32.4ZM166.096 32.4C168.613 32.4 170.685 31.8666 172.126 30.6204L170.818 29.1076C169.891 29.9094 168.379 30.4 166.096 30.4V32.4ZM172.126 30.6204C173.567 29.3742 174.248 27.6533 174.248 25.592H172.248C172.248 27.1787 171.745 28.3057 170.818 29.1076L172.126 30.6204ZM174.248 25.592C174.248 23.5049 173.571 21.7652 172.126 20.5156L170.818 22.0284C171.741 22.8268 172.248 23.9671 172.248 25.592H174.248ZM172.126 20.5156C170.685 19.2694 168.613 18.736 166.096 18.736V20.736C168.379 20.736 169.891 21.2266 170.818 22.0284L172.126 20.5156ZM166.096 18.736H156.304V20.736H166.096V18.736ZM157.034 20.419L160.49 16.723L159.03 15.357L155.574 19.053L157.034 20.419ZM158.76 16.04V35.096H160.76V16.04H158.76Z" fill="#3D444D" mask="url(#path-5-outside-3_5_60)"/>
<g clip-path="url(#clip0_5_60)">
<path d="M48.4156 15.8732C48.3913 15.8982 48.3763 15.9306 48.373 15.9652C48.3 16.7294 48.2582 17.5028 48.2488 18.2842C48.205 21.9463 48.8787 25.4507 50.1399 28.665C50.1952 28.806 50.4002 28.7888 50.4354 28.6416C52.338 20.6879 57.6883 14.0795 64.8128 10.4413C64.948 10.3722 64.9158 10.1713 64.765 10.1524C64.0393 10.0613 63.3009 10.0102 62.5521 10.0014C57.0093 9.93584 51.9838 12.1974 48.4156 15.8732Z" fill="#1144EE"/>
<path d="M43.9078 35.0423C43.9183 35.0755 43.9399 35.104 43.9689 35.1233C44.61 35.5509 45.274 35.9557 45.9606 36.3358C49.1784 38.1172 52.5982 39.1961 56.0412 39.6231C56.1923 39.6419 56.2746 39.4544 56.1612 39.3535C50.0328 33.9037 46.7352 26.079 46.909 18.1165C46.9123 17.9653 46.7192 17.8978 46.6307 18.0207C46.2048 18.612 45.8081 19.2335 45.4439 19.8841C42.7475 24.7004 42.3554 30.172 43.9078 35.0423Z" fill="#1144EE"/>
<path d="M57.4964 48.384C57.5301 48.3927 57.5659 48.3899 57.5978 48.3759C58.3038 48.0655 59.0027 47.7234 59.6926 47.3494C62.9261 45.5964 65.6704 43.2982 67.873 40.6321C67.9696 40.5152 67.8543 40.3458 67.7079 40.3872C59.801 42.627 51.388 41.2182 44.7124 36.8178C44.5857 36.7343 44.4252 36.8605 44.4824 37.0005C44.7574 37.6745 45.0737 38.3399 45.4322 38.9938C48.0855 43.8336 52.5271 47.0866 57.4964 48.384Z" fill="#1144EE"/>
<path d="M76.5147 42.9189C76.5386 42.8936 76.5531 42.8609 76.5558 42.8263C76.6174 42.0611 76.6476 41.2871 76.6452 40.5057C76.634 36.8434 75.9078 33.3494 74.5984 30.1541C74.541 30.014 74.3363 30.0342 74.3033 30.182C72.5204 38.163 67.2699 44.8502 60.2008 48.5937C60.0666 48.6648 60.1019 48.8652 60.253 48.8819C60.9799 48.9621 61.7189 49.0023 62.4679 49C68.011 48.9832 73.002 46.6474 76.5147 42.9189Z" fill="#1144EE"/>
<path d="M81.2831 23.8528C81.2737 23.8194 81.2531 23.7901 81.2248 23.7698C80.5988 23.3205 79.9492 22.8933 79.2762 22.4899C76.122 20.5993 72.7416 19.404 69.3154 18.8593C69.1651 18.8354 69.0763 19.0199 69.1862 19.1246C75.1222 24.7811 78.1469 32.7141 77.6975 40.6659C77.689 40.8168 77.8796 40.8909 77.9724 40.7711C78.4185 40.1947 78.8364 39.5872 79.223 38.9494C82.0845 34.2283 82.6658 28.7735 81.2831 23.8528Z" fill="#1144EE"/>
<path d="M66.9376 10.2868C66.9035 10.2791 66.8679 10.2831 66.8365 10.2982C66.1412 10.6317 65.4541 10.9965 64.777 11.3931C61.6037 13.2517 58.9375 15.6391 56.8249 18.3762C56.7323 18.4963 56.8532 18.6618 56.9981 18.6155C64.826 16.1166 73.2814 17.2473 80.0998 21.4254C80.2293 21.5047 80.3855 21.3733 80.3237 21.2352C80.0263 20.5707 79.688 19.916 79.3079 19.2742C76.4948 14.5245 71.9474 11.4196 66.9376 10.2868Z" fill="#1144EE"/>
</g>
<defs>
<clipPath id="clip0_5_60">
<rect width="39" height="39" fill="white" transform="translate(43 10)"/>
</clipPath>
</defs>
</svg>
